<svg xmlns="http://www.w3.org/2000/svg" viewBox="0 0 292.89 266.5"><defs><style>.cls-1{fill:#10b981;}.cls-2{fill:none;}</style></defs><title>community</title><g id="Calque_2" data-name="Calque 2"><g id="Calque_1-2" data-name="Calque 1"><path class="cls-1" d="M146.39,104.06l25.5,14.72v29.44l-25.5,14.72-25.5-14.72V118.78l25.5-14.72m0-3.47-28.5,16.46V150l28.5,16.46L174.89,150v-32.9l-28.5-16.46Z"/><rect class="cls-2" width="292.89" height="266.5"/><path class="cls-1" d="M208.39,104.06l25.5,14.72v29.44l-25.5,14.72-25.5-14.72V118.78l25.5-14.72m0-3.47-28.5,16.46V150l28.5,16.46L236.89,150v-32.9l-28.5-16.46Z"/><path class="cls-1" d="M84.39,104.06l25.5,14.72v29.44l-25.5,14.72-25.5-14.72V118.78l25.5-14.72m0-3.47-28.5,16.46V150l28.5,16.46L112.89,150v-32.9l-28.5-16.46Z"/><path class="cls-1" d="M115.39,157.06l25.5,14.72v29.44l-25.5,14.72-25.5-14.72V171.78l25.5-14.72m0-3.47-28.5,16.46V203l28.5,16.46L143.89,203v-32.9l-28.5-16.46Z"/><path class="cls-1" d="M177.39,157.06l25.5,14.72v29.44l-25.5,14.72-25.5-14.72V171.78l25.5-14.72m0-3.47-28.5,16.46V203l28.5,16.46L205.89,203v-32.9l-28.5-16.46Z"/><path class="cls-1" d="M115.39,51.06l25.5,14.72V95.22l-25.5,14.72L89.89,95.22V65.78l25.5-14.72m0-3.47L86.89,64.05V97l28.5,16.46L143.89,97V64.05l-28.5-16.46Z"/><path class="cls-1" d="M177.39,51.06l25.5,14.72V95.22l-25.5,14.72-25.5-14.72V65.78l25.5-14.72m0-3.47-28.5,16.46V97l28.5,16.46L205.89,97V64.05l-28.5-16.46Z"/></g></g></svg>