<svg xmlns="http://www.w3.org/2000/svg" viewBox="0 0 932 456"><defs><style>.cls-1,.cls-2,.cls-3,.cls-6{fill:none;}.cls-1,.cls-2{stroke:#198754;}.cls-1,.cls-2,.cls-3{stroke-miterlimit:10;stroke-width:2px;}.cls-2{stroke-dasharray:6;}.cls-3{stroke:#666;}.cls-4,.cls-5{fill:#666;}.cls-5{font-size:12px;font-family:MyriadPro-Regular, Myriad Pro;}</style></defs><title>schema</title><g id="Calque_2" data-name="Calque 2"><g id="Calque_2-2" data-name="Calque 2"><line class="cls-1" x1="268" y1="318" x2="267" y2="160"/><line class="cls-2" x1="268" y1="318" x2="464" y2="261"/><line class="cls-1" x1="268" y1="318" x2="463" y2="375"/><line class="cls-1" x1="463" y1="375" x2="660" y2="318"/><line class="cls-1" x1="267" y1="160" x2="464" y2="99"/><line class="cls-2" x1="464" y1="261" x2="660" y2="318"/><line class="cls-2" x1="464" y1="261" x2="464" y2="99"/><line class="cls-1" x1="464" y1="99" x2="659" y2="159"/><line class="cls-1" x1="659" y1="159" x2="660" y2="318"/><line class="cls-1" x1="267" y1="160" x2="465" y2="217"/><line class="cls-1" x1="465" y1="217" x2="463" y2="375"/><line class="cls-1" x1="465" y1="217" x2="659" y2="159"/><line class="cls-3" x1="469.04" y1="81.31" x2="664.96" y2="140.69"/><polygon class="cls-4" points="471.02 86.19 471.89 85.69 469.4 81.43 473.83 79.26 473.39 78.36 468 81 471.02 86.19"/><polygon class="cls-4" points="660.61 143.64 660.16 142.74 664.6 140.57 662.11 136.31 662.98 135.81 666 141 660.61 143.64"/><text class="cls-5" transform="translate(551.43 100.61)">400 cm</text><line class="cls-3" x1="264.03" y1="141.67" x2="454.97" y2="80.33"/><polygon class="cls-4" points="268.44 144.55 268.86 143.64 264.4 141.55 266.81 137.25 265.94 136.76 263 142 268.44 144.55"/><polygon class="cls-4" points="453.06 85.24 452.19 84.75 454.6 80.45 450.14 78.36 450.56 77.45 456 80 453.06 85.24"/><text class="cls-5" transform="translate(330.43 100.61)">400 cm</text><line class="cls-3" x1="251" y1="319.92" x2="251" y2="161.08"/><polygon class="cls-4" points="255.09 316.6 254.36 315.92 251 319.53 247.64 315.92 246.91 316.6 251 321 255.09 316.6"/><polygon class="cls-4" points="255.09 164.4 254.36 165.08 251 161.47 247.64 165.08 246.91 164.4 251 160 255.09 164.4"/><text class="cls-5" transform="translate(210.43 240.61)">280 cm</text><rect class="cls-6" width="932" height="456"/></g></g></svg>