<svg xmlns="http://www.w3.org/2000/svg" viewBox="0 0 458 226.54"><defs><style>.cls-1{fill:none;}.cls-2{fill:#198754;}</style></defs><title>big_text</title><g id="Calque_2" data-name="Calque 2"><g id="Calque_1-2" data-name="Calque 1"><rect class="cls-1" width="458" height="226.54"/><path class="cls-2" d="M117.86,30.42,50,69.6V148l67.86,39.18,9.54-5.51L185.72,148V69.6ZM176,142.32l-58.09,33.54-.18-.1L59.77,142.32V75.24L117.86,41.7,176,75.24Z"/><path class="cls-2" d="M117.86,66.15l36.92,21.32V130.1l-32.09,18.52-4.83,2.79L80.94,130.1V87.47l36.92-21.32m-.14,77.79.5-.29,29.57-17.07.5-.29V91l-.5-.29L118.22,73.63l-.5-.29-.5.29L87.65,90.7l-.5.29v35.3l.5.29,29.57,17.07.5.29M117.86,65,79.94,86.89v43.78l37.92,21.9,5.33-3.08,32.59-18.82V86.89L117.86,65Zm-.14,77.79L88.15,125.71V91.57L117.72,74.5l29.57,17.07v34.14l-29.57,17.07Z"/><polygon class="cls-2" points="147.1 91.79 147.1 91.59 117.58 74.55 92.01 89.31 147.1 121.12 155.78 126.13 155.78 130.67 151.6 133.09 123.19 149.49 117.86 152.57 80.02 130.72 88.07 125.7 117.58 142.74 142.94 128.09 88.05 96.4 79.94 91.71 79.94 86.89 83.88 84.61 117.86 65 155.78 86.89 155.78 86.99 147.1 91.79"/><path class="cls-2" d="M235.68,104.92a4.71,4.71,0,0,0-1.84-4A24,24,0,0,0,227.23,98a46.79,46.79,0,0,1-7.57-3q-7.59-4.09-7.59-11.05a10.83,10.83,0,0,1,2-6.45A13.3,13.3,0,0,1,220,73a22.09,22.09,0,0,1,8.56-1.59A20.1,20.1,0,0,1,237,73.14,13.58,13.58,0,0,1,242.84,78a12.88,12.88,0,0,1,2.06,7.17h-9.19a6,6,0,0,0-1.93-4.76,7.93,7.93,0,0,0-5.42-1.7,8.5,8.5,0,0,0-5.24,1.42,4.5,4.5,0,0,0-1.86,3.76,4.29,4.29,0,0,0,2.19,3.64,24.72,24.72,0,0,0,6.44,2.76q7.85,2.35,11.43,5.85a11.65,11.65,0,0,1,3.58,8.7,10.73,10.73,0,0,1-4.38,9.08q-4.38,3.3-11.79,3.29a22.83,22.83,0,0,1-9.37-1.88,14.89,14.89,0,0,1-6.45-5.16,13.24,13.24,0,0,1-2.22-7.6h9.22q0,7.38,8.82,7.38a8.55,8.55,0,0,0,5.11-1.33A4.33,4.33,0,0,0,235.68,104.92Z"/><path class="cls-2" d="M284.69,79.46H271v37.16h-9.19V79.46H248.36V72h36.33Z"/><path class="cls-2" d="M311.43,107.43H295.32l-3.06,9.19h-9.77L299.09,72h8.51l16.7,44.6h-9.77ZM297.8,100H309l-5.6-16.7Z"/><path class="cls-2" d="M362.83,101.76a15.79,15.79,0,0,1-5.31,11.34q-4.8,4.13-12.64,4.13-8.58,0-13.49-5.77t-4.92-15.85V92.88a26.71,26.71,0,0,1,2.27-11.33A16.92,16.92,0,0,1,335.22,74,18.12,18.12,0,0,1,345,71.41q7.71,0,12.43,4.13t5.45,11.61H353.7c-.22-2.88-1-5-2.4-6.26s-3.48-2-6.29-2a7.8,7.8,0,0,0-6.88,3.3q-2.28,3.29-2.34,10.21v3.37q0,7.23,2.19,10.57t6.9,3.34q4.26,0,6.36-2t2.4-6Z"/><path class="cls-2" d="M382.83,98.73l-4.77,5.15v12.74h-9.19V72h9.19V92.24l4-5.55L393.46,72h11.31L388.93,91.84l16.3,24.78H394.29Z"/><path class="cls-2" d="M225.43,126.74h-6.7V145h-1.65V126.74h-6.69v-1.41h15Z"/><path class="cls-2" d="M239.39,135.58h-9.15v8h10.52V145H228.59V125.33h12.1v1.41H230.24v7.43h9.15Z"/><path class="cls-2" d="M258.08,138.87a7,7,0,0,1-2.21,4.76,7.27,7.27,0,0,1-5,1.65,6.89,6.89,0,0,1-3.85-1.1,7.08,7.08,0,0,1-2.58-3.1,11,11,0,0,1-.93-4.58v-2.56a11.19,11.19,0,0,1,.92-4.65,7.11,7.11,0,0,1,2.62-3.13,7.19,7.19,0,0,1,3.94-1.1,7,7,0,0,1,5,1.71,7.1,7.1,0,0,1,2.11,4.71h-1.66q-.62-5-5.42-5a5.11,5.11,0,0,0-4.23,2,8.72,8.72,0,0,0-1.58,5.53v2.41a8.78,8.78,0,0,0,1.54,5.44,4.93,4.93,0,0,0,4.15,2,5.45,5.45,0,0,0,3.91-1.25,6,6,0,0,0,1.63-3.75Z"/><path class="cls-2" d="M276.59,145h-1.67v-9.43H263.75V145H262.1V125.33h1.65v8.84h11.17v-8.84h1.67Z"/><path class="cls-2" d="M296.12,145h-1.66l-11.24-16.84V145h-1.66V125.33h1.66l11.26,16.85V125.33h1.64Z"/><path class="cls-2" d="M315.54,136.24a11.47,11.47,0,0,1-.94,4.77,7.16,7.16,0,0,1-2.66,3.16,7.28,7.28,0,0,1-4,1.11,6.92,6.92,0,0,1-5.53-2.47,9.91,9.91,0,0,1-2.11-6.65v-2a11.36,11.36,0,0,1,.95-4.76,7,7,0,0,1,6.67-4.31,7.08,7.08,0,0,1,6.65,4.19,11.39,11.39,0,0,1,1,4.64Zm-1.66-2.14a8.74,8.74,0,0,0-1.59-5.56,5.73,5.73,0,0,0-8.73,0,8.81,8.81,0,0,0-1.62,5.64v2.06a8.73,8.73,0,0,0,1.62,5.55,5.27,5.27,0,0,0,4.37,2,5.21,5.21,0,0,0,4.38-2,8.93,8.93,0,0,0,1.57-5.63Z"/><path class="cls-2" d="M321.36,143.6H331V145H319.7V125.33h1.66Z"/><path class="cls-2" d="M347.77,136.24a11.31,11.31,0,0,1-.94,4.77,7.16,7.16,0,0,1-2.66,3.16,7.27,7.27,0,0,1-4,1.11,6.92,6.92,0,0,1-5.54-2.47,9.91,9.91,0,0,1-2.1-6.65v-2a11.36,11.36,0,0,1,.94-4.76,7.29,7.29,0,0,1,13.32-.12,11.39,11.39,0,0,1,1,4.64Zm-1.65-2.14a8.74,8.74,0,0,0-1.6-5.56,5.73,5.73,0,0,0-8.73,0,8.87,8.87,0,0,0-1.61,5.64v2.06a8.72,8.72,0,0,0,1.61,5.55,5.74,5.74,0,0,0,8.76,0,9,9,0,0,0,1.57-5.63Z"/><path class="cls-2" d="M366.05,142.67a5.56,5.56,0,0,1-2.7,1.92,11.56,11.56,0,0,1-4.1.69,7.57,7.57,0,0,1-4.08-1.11A7.35,7.35,0,0,1,352.4,141a10.8,10.8,0,0,1-1-4.65V133.9a9.57,9.57,0,0,1,2-6.47,6.94,6.94,0,0,1,5.52-2.37,7.29,7.29,0,0,1,4.86,1.55,6.36,6.36,0,0,1,2.19,4.26h-1.65a5.07,5.07,0,0,0-1.75-3.28,5.6,5.6,0,0,0-3.63-1.12,5.28,5.28,0,0,0-4.34,2,8.51,8.51,0,0,0-1.6,5.53v2.33a9.73,9.73,0,0,0,.76,4,6,6,0,0,0,2.17,2.67,5.74,5.74,0,0,0,3.26.94,9.08,9.08,0,0,0,3.67-.67,4,4,0,0,0,1.47-1v-5.08h-5.25v-1.41h6.91Z"/><path class="cls-2" d="M372.75,145H371.1V125.33h1.65Z"/><path class="cls-2" d="M388.85,135.58h-9.14v8h10.51V145H378.05V125.33h12.1v1.41H379.71v7.43h9.14Z"/><path class="cls-2" d="M404.77,140.17a3.21,3.21,0,0,0-1.15-2.59,12.05,12.05,0,0,0-4.17-1.81A14.34,14.34,0,0,1,395,133.9a4.55,4.55,0,0,1-.14-7.42,7.49,7.49,0,0,1,4.72-1.42,7.84,7.84,0,0,1,3.48.76,5.69,5.69,0,0,1,2.38,2.11,5.5,5.5,0,0,1,.85,3h-1.67a4.11,4.11,0,0,0-1.37-3.24,5.29,5.29,0,0,0-3.67-1.23,5.74,5.74,0,0,0-3.58,1,3.17,3.17,0,0,0-1.33,2.63,3,3,0,0,0,1.2,2.45,11,11,0,0,0,3.83,1.67,17.61,17.61,0,0,1,4,1.5,5.74,5.74,0,0,1,2.05,1.86,4.71,4.71,0,0,1,.68,2.55,4.43,4.43,0,0,1-1.85,3.73,7.79,7.79,0,0,1-4.86,1.41,9.61,9.61,0,0,1-3.8-.74,5.87,5.87,0,0,1-2.62-2.08,5.47,5.47,0,0,1-.89-3.07h1.65a3.93,3.93,0,0,0,1.55,3.28,6.52,6.52,0,0,0,4.11,1.2,6,6,0,0,0,3.66-1A3.19,3.19,0,0,0,404.77,140.17Z"/></g></g></svg>