<svg xmlns="http://www.w3.org/2000/svg" viewBox="0 0 218 218" class="levitate"><defs><style>.cls-1{fill:none;}.cls-2{fill:#10B981;}</style></defs><title>logo_only</title><g id="Calque_2" data-name="Calque 2"><g id="Calque_1-2" data-name="Calque 1"><rect class="cls-1" width="218" height="218"/><path class="cls-2" d="M108.73,20.71,32,65v88.56l76.7,44.29,10.78-6.23,65.91-38.06V65Zm65.65,126.47-65.65,37.91-.2-.12L43.07,147.18V71.37l65.66-37.91,65.65,37.91Z"/><path class="cls-2" d="M108.73,60.94l41.86,24.17v48.33l-36.34,21-5.52,3.19L66.87,133.44V85.11l41.86-24.17m-.16,87.92.5-.29,33.42-19.3.5-.28V89.24l-.5-.29L109.07,69.66l-.5-.29-.5.29L74.65,89l-.5.29V129l.5.28,33.42,19.3.5.29m.16-89.08L65.87,84.53V134l42.86,24.74,6-3.48L151.59,134V84.53L108.73,59.78Zm-.16,87.92L75.15,128.41V89.82l33.42-19.29L142,89.82v38.59L108.57,147.7Z"/><polygon class="cls-2" points="141.78 90.07 141.78 89.85 108.41 70.58 79.51 87.27 141.78 123.22 151.59 128.88 151.59 134.02 146.86 136.74 114.75 155.28 108.73 158.76 65.96 134.07 75.06 128.39 108.41 147.65 137.08 131.09 75.04 95.28 65.87 89.98 65.87 84.53 70.32 81.96 108.73 59.78 151.59 84.53 151.59 84.64 141.78 90.07"/></g></g></svg>