<svg xmlns="http://www.w3.org/2000/svg" viewBox="0 0 218 218"><defs><style>.cls-1{fill:none;}.cls-2{fill:#198754;}</style></defs><title>small_text</title><g id="Calque_2" data-name="Calque 2"><g id="Calque_1-2" data-name="Calque 1"><rect class="cls-1" width="218" height="218"/><path class="cls-2" d="M108.73,24.71,53.61,56.53v63.65L108.73,152l7.75-4.47,47.37-27.35V56.53Zm47.18,90.89-47.18,27.24-.14-.08L61.54,115.6V61.11l47.19-27.24,47.18,27.24Z"/><path class="cls-2" d="M108.73,54l29.8,17.2v34.41l-26,15-3.83,2.21-29.8-17.2V71.15L108.73,54m-.12,63.18.5-.29,24-13.87.5-.29V73.8l-.5-.29-24-13.87-.5-.28-.5.28-24,13.87-.5.29v28.88l.5.29,24,13.87.5.29m.12-64.34L77.93,70.57v35.57l30.8,17.78,4.33-2.5,26.47-15.28V70.57l-30.8-17.78ZM108.61,116l-24-13.86V74.38l24-13.87,24,13.87v27.73l-24,13.86Z"/><polygon class="cls-2" points="132.48 74.56 132.48 74.4 108.5 60.55 87.73 72.54 132.48 98.38 139.53 102.45 139.53 106.14 136.13 108.1 113.06 121.42 108.73 123.92 77.99 106.18 84.53 102.1 108.5 115.93 129.1 104.04 84.52 78.3 77.93 74.49 77.93 70.57 81.13 68.73 108.73 52.79 139.53 70.57 139.53 70.66 132.48 74.56"/><path class="cls-2" d="M80.68,173.31a1.79,1.79,0,0,0-.71-1.53,9.21,9.21,0,0,0-2.53-1.13,17.69,17.69,0,0,1-2.89-1.16q-2.91-1.58-2.91-4.23a4.1,4.1,0,0,1,.78-2.47,5.07,5.07,0,0,1,2.24-1.69,8.32,8.32,0,0,1,3.27-.61,7.69,7.69,0,0,1,3.26.66A5.17,5.17,0,0,1,83.41,163a4.86,4.86,0,0,1,.79,2.74H80.69a2.3,2.3,0,0,0-.74-1.82,3,3,0,0,0-2.07-.65,3.29,3.29,0,0,0-2,.54,1.7,1.7,0,0,0-.71,1.44,1.65,1.65,0,0,0,.83,1.39,9.49,9.49,0,0,0,2.47,1.06A10.62,10.62,0,0,1,82.83,170a4.45,4.45,0,0,1,1.37,3.33,4.13,4.13,0,0,1-1.67,3.48A7.34,7.34,0,0,1,78,178a8.72,8.72,0,0,1-3.59-.72,5.67,5.67,0,0,1-2.47-2,5.08,5.08,0,0,1-.85-2.9h3.53q0,2.82,3.38,2.82a3.27,3.27,0,0,0,2-.51A1.65,1.65,0,0,0,80.68,173.31Z"/><path class="cls-2" d="M99.43,163.57H94.2v14.21H90.68V163.57H85.53v-2.85h13.9Z"/><path class="cls-2" d="M109.66,174.27h-6.17l-1.17,3.51H98.58l6.35-17.06h3.26l6.39,17.06h-3.74Zm-5.22-2.85h4.27L106.56,165Z"/><path class="cls-2" d="M129.32,172.1a6,6,0,0,1-2,4.34,7.19,7.19,0,0,1-4.84,1.58,6.43,6.43,0,0,1-5.16-2.21,9.09,9.09,0,0,1-1.88-6.07v-1a10.22,10.22,0,0,1,.87-4.34,6.47,6.47,0,0,1,2.48-2.87,7.75,7.75,0,0,1,8.5.58,6.44,6.44,0,0,1,2.08,4.44h-3.51a3.59,3.59,0,0,0-.92-2.4,3.44,3.44,0,0,0-2.41-.74,3,3,0,0,0-2.63,1.26,7.11,7.11,0,0,0-.9,3.91v1.29a7.53,7.53,0,0,0,.84,4,2.94,2.94,0,0,0,2.64,1.28,3.43,3.43,0,0,0,2.43-.75,3.28,3.28,0,0,0,.92-2.3Z"/><path class="cls-2" d="M137,170.94l-1.83,2v4.87h-3.51V160.72h3.51v7.73l1.55-2.12,4.35-5.61h4.32l-6.06,7.58,6.24,9.48h-4.18Z"/><path class="cls-2" d="M76.75,181.65H74.19v7h-.63v-7H71v-.53h5.75Z"/><path class="cls-2" d="M82.09,185h-3.5v3.08h4v.53H78v-7.52h4.63v.53h-4v2.85h3.5Z"/><path class="cls-2" d="M89.25,186.3a2.72,2.72,0,0,1-.85,1.82,2.78,2.78,0,0,1-1.91.63,2.63,2.63,0,0,1-1.47-.42,2.71,2.71,0,0,1-1-1.19,4.24,4.24,0,0,1-.35-1.75v-1a4.35,4.35,0,0,1,.34-1.78,2.89,2.89,0,0,1,4.42-1,2.8,2.8,0,0,1,.81,1.81h-.64a1.91,1.91,0,0,0-2.07-1.92,2,2,0,0,0-1.62.77,3.27,3.27,0,0,0-.61,2.11v.92a3.36,3.36,0,0,0,.59,2.08,1.88,1.88,0,0,0,1.59.78,2.11,2.11,0,0,0,1.5-.48,2.34,2.34,0,0,0,.62-1.43Z"/><path class="cls-2" d="M96.33,188.64h-.64V185H91.41v3.61h-.63v-7.52h.63v3.38h4.28v-3.38h.64Z"/><path class="cls-2" d="M103.8,188.64h-.64l-4.3-6.44v6.44h-.63v-7.52h.63l4.31,6.44v-6.44h.63Z"/><path class="cls-2" d="M111.23,185.29a4.31,4.31,0,0,1-.36,1.82,2.7,2.7,0,0,1-2.55,1.64,2.65,2.65,0,0,1-2.12-.95,3.76,3.76,0,0,1-.81-2.54v-.78a4.23,4.23,0,0,1,.37-1.82,2.74,2.74,0,0,1,1-1.22,2.71,2.71,0,0,1,1.53-.43,2.69,2.69,0,0,1,2.54,1.61,4.27,4.27,0,0,1,.38,1.77Zm-.64-.82a3.33,3.33,0,0,0-.61-2.13,2,2,0,0,0-1.67-.77,2.05,2.05,0,0,0-1.67.77,3.4,3.4,0,0,0-.61,2.16v.79a3.34,3.34,0,0,0,.61,2.12,2,2,0,0,0,1.68.78,2,2,0,0,0,1.67-.77,3.42,3.42,0,0,0,.6-2.15Z"/><path class="cls-2" d="M113.46,188.11h3.69v.53h-4.33v-7.52h.64Z"/><path class="cls-2" d="M123.56,185.29a4.31,4.31,0,0,1-.36,1.82,2.7,2.7,0,0,1-2.55,1.64,2.67,2.67,0,0,1-2.12-.95,3.76,3.76,0,0,1-.8-2.54v-.78a4.38,4.38,0,0,1,.36-1.82,2.74,2.74,0,0,1,1-1.22,2.71,2.71,0,0,1,1.53-.43,2.69,2.69,0,0,1,2.54,1.61,4.27,4.27,0,0,1,.38,1.77Zm-.63-.82a3.33,3.33,0,0,0-.62-2.13,2.19,2.19,0,0,0-3.33,0,3.35,3.35,0,0,0-.62,2.16v.79a3.34,3.34,0,0,0,.61,2.12,2,2,0,0,0,1.68.78,2,2,0,0,0,1.67-.77,3.42,3.42,0,0,0,.61-2.15Z"/><path class="cls-2" d="M130.55,187.75a2.09,2.09,0,0,1-1,.73,4.35,4.35,0,0,1-1.57.27,2.81,2.81,0,0,1-1.56-.43,2.76,2.76,0,0,1-1.06-1.2,4,4,0,0,1-.38-1.77v-1a3.61,3.61,0,0,1,.79-2.47,2.65,2.65,0,0,1,2.11-.91,2.82,2.82,0,0,1,1.86.59,2.42,2.42,0,0,1,.83,1.64h-.63a1.9,1.9,0,0,0-.67-1.26,2.12,2.12,0,0,0-1.39-.43,2,2,0,0,0-1.66.75,3.26,3.26,0,0,0-.61,2.12v.89a3.82,3.82,0,0,0,.29,1.52,2.35,2.35,0,0,0,.83,1,2.23,2.23,0,0,0,1.25.36,3.5,3.5,0,0,0,1.4-.26,1.51,1.51,0,0,0,.57-.4v-1.94h-2v-.54h2.64Z"/><path class="cls-2" d="M133.11,188.64h-.63v-7.52h.63Z"/><path class="cls-2" d="M139.27,185h-3.49v3.08h4v.53h-4.66v-7.52h4.63v.53h-4v2.85h3.49Z"/><path class="cls-2" d="M145.36,186.79a1.24,1.24,0,0,0-.43-1,4.73,4.73,0,0,0-1.6-.69,5.57,5.57,0,0,1-1.7-.72,1.74,1.74,0,0,1,0-2.84,2.88,2.88,0,0,1,1.8-.54,3,3,0,0,1,1.34.29,2.24,2.24,0,0,1,.91.81,2.08,2.08,0,0,1,.32,1.15h-.63a1.59,1.59,0,0,0-.53-1.24,2.05,2.05,0,0,0-1.41-.47,2.18,2.18,0,0,0-1.36.39,1.19,1.19,0,0,0-.51,1,1.12,1.12,0,0,0,.46.94,4.11,4.11,0,0,0,1.46.64,7.23,7.23,0,0,1,1.53.57,2.27,2.27,0,0,1,.78.72,1.8,1.8,0,0,1,.26,1,1.71,1.71,0,0,1-.71,1.43,3,3,0,0,1-1.86.54,3.61,3.61,0,0,1-1.45-.29,2.23,2.23,0,0,1-1-.79,2.07,2.07,0,0,1-.34-1.18h.63a1.53,1.53,0,0,0,.59,1.26,2.46,2.46,0,0,0,1.57.46,2.3,2.3,0,0,0,1.4-.39A1.2,1.2,0,0,0,145.36,186.79Z"/></g></g></svg>